<?xml version="1.0" encoding="UTF-8" standalone="no"?>
<svg
   xmlns:dc="http://purl.org/dc/elements/1.1/"
   xmlns:cc="http://creativecommons.org/ns#"
   xmlns:rdf="http://www.w3.org/1999/02/22-rdf-syntax-ns#"
   xmlns:svg="http://www.w3.org/2000/svg"
   xmlns="http://www.w3.org/2000/svg"
   id="svg8"
   version="1.1"
   viewBox="0 0 210 297"
   height="297mm"
   width="210mm">
  <defs
     id="defs2" />
  <metadata
     id="metadata5">
    <rdf:RDF>
      <cc:Work
         rdf:about="">
        <dc:format>image/svg+xml</dc:format>
        <dc:type
           rdf:resource="http://purl.org/dc/dcmitype/StillImage" />
        <dc:title></dc:title>
      </cc:Work>
    </rdf:RDF>
  </metadata>
  <g
     id="layer1">
    <path
       d="m 129.15415,192.92183 c 0.006,-0.82455 0.0216,-1.64585 0.11734,-2.46547 0.0683,-0.80096 0.30732,-1.55723 0.63188,-2.28715 0.30823,-0.70745 0.75619,-1.32698 1.24247,-1.91992 0.51725,-0.6123 1.10924,-1.14939 1.75243,-1.62507 1.31049,-0.80647 2.58882,-1.7045 4.0136,-2.29523 0.31459,-0.13043 0.73996,-0.26359 1.0619,-0.36958 1.11828,-0.38798 2.2602,-0.67161 3.41801,-0.90888 0.93916,-0.19811 1.8947,-0.2794 2.85149,-0.32482 0.72511,-0.0131 1.45275,-0.0471 2.17618,0.0129 0.82015,0.0283 1.60778,0.21274 2.38765,0.45426 0.92663,0.26161 1.82161,0.62007 2.73037,0.93649 0.85241,0.30294 1.69145,0.64185 2.53385,0.97136 0.77682,0.34381 1.50352,0.78545 2.24278,1.20094 0.71903,0.45284 1.44329,0.90181 2.14026,1.38892 0.80507,0.54107 1.56478,1.14335 2.32944,1.73874 0.70887,0.59211 1.48034,1.09976 2.22424,1.64531 0.61207,0.4514 1.22414,0.90222 1.82787,1.36466 0.58967,0.37703 1.18818,0.74068 1.79251,1.09378 0.65305,0.35594 1.34233,0.64048 2.01053,0.96824 0.73405,0.2854 1.45186,0.61187 2.18596,0.89626 0.80066,0.28847 1.58952,0.60595 2.38914,0.89699 0.90563,0.32534 1.79704,0.68835 2.71876,0.96635 1.14889,0.30699 2.28545,0.65733 3.45174,0.89288 1.16063,0.2393 2.33646,0.38812 3.50807,0.55977 1.03487,0.14615 2.07838,0.20647 3.11824,0.30534 1.00718,0.0969 2.01896,0.12063 3.03001,0.13634 1.12197,0.0111 2.24404,0.0135 3.36606,0.0144 1.27539,-0.0102 2.54843,-0.007 3.82217,0.0583 1.37766,0.15495 2.76279,0.20901 4.1447,0.30704 1.69374,0.10625 3.3813,0.28233 5.06274,0.50999 1.82524,0.33232 3.64652,0.69214 5.46148,1.07736 1.19882,0.22893 2.40055,0.44384 3.6027,0.65455 0.94099,0.12905 1.88763,0.22306 2.83397,0.3064 0.99461,0.14369 1.99591,0.21815 2.99931,0.26013 1.1166,0.0356 2.23397,0.0363 3.35103,0.0384 1.24692,0.0114 2.49188,0.0109 3.73688,-0.0608 1.04649,-0.0479 2.09175,-0.1348 3.13006,-0.27449 0.88878,-0.12872 1.77432,-0.28014 2.66006,-0.42924 0.80725,-0.1575 1.60462,-0.35919 2.4096,-0.52726 0.75362,-0.10677 1.48493,-0.32136 2.22985,-0.4697 0.55634,-0.14054 1.11975,-0.2388 1.67515,-0.38112 0.43707,-0.1239 0.89747,-0.0874 1.33866,-0.17701 0.42852,-0.0928 0.86742,-0.11976 1.30387,-0.14803 0.33357,0.0194 0.60118,-0.17834 0.9044,-0.27688 -0.19308,0.1691 0.67365,-0.37557 0.42678,-0.23495 -3.75648,2.13973 -2.73984,1.65221 -1.91189,1.05103 0.40697,-0.22122 0.73806,-0.54458 1.09352,-0.83527 0.25049,-0.20559 0.46401,-0.4508 0.70481,-0.66686 0.26711,-0.23788 0.47751,-0.52277 0.68499,-0.81237 0.30338,-0.47677 0.56733,-0.97875 0.80167,-1.49274 0.14796,-0.39157 0.33115,-0.76801 0.43234,-1.17529 0.10041,-0.34157 0.18847,-0.6629 0.13749,-1.01908 -0.15464,-0.6664 -0.63862,-1.15878 -1.09914,-1.63546 -0.88997,-0.84576 -1.90536,-1.54336 -2.91187,-2.24072 -1.08081,-0.74551 -2.21994,-1.40187 -3.34462,-2.07806 -1.04054,-0.58533 -2.10315,-1.13752 -3.20499,-1.59867 -0.86087,-0.33922 -1.70644,-0.71282 -2.57863,-1.02218 -0.83505,-0.32707 -1.6877,-0.60253 -2.53274,-0.90155 -0.76376,-0.26838 -1.48192,-0.64378 -2.18607,-1.03898 -0.71625,-0.39168 -1.25683,-0.97708 -1.76162,-1.60463 -0.62792,-0.81994 -1.11196,-1.73331 -1.61119,-2.63342 -0.4333,-0.80282 -0.93204,-1.56702 -1.4041,-2.34687 -0.40608,-0.64205 -0.86738,-1.24748 -1.31108,-1.864 -0.48766,-0.64012 -1.0539,-1.20322 -1.66756,-1.72055 -0.44579,-0.41637 -0.94123,-0.7571 -1.44531,-1.09598 -0.56391,-0.36885 -1.15861,-0.68719 -1.74244,-1.02286 -0.60448,-0.32557 -1.16438,-0.72095 -1.75423,-1.07056 -0.4561,-0.30913 -0.91976,-0.61035 -1.36601,-0.93363 -0.45064,-0.22837 -0.83039,-0.56326 -1.24655,-0.8441 -0.36203,-0.28237 -0.68084,-0.61124 -1.0355,-0.90252 -0.4282,-0.31546 -0.8525,-0.63579 -1.29857,-0.92565 -0.48367,-0.33521 -0.98166,-0.64429 -1.52308,-0.87658 -0.61496,-0.21588 -1.2271,-0.43638 -1.85881,-0.59852 -0.95426,-0.25541 -1.94008,-0.36196 -2.91344,-0.51978 -0.98291,-0.12138 -1.96007,-0.2686 -2.9323,-0.45649 -0.69615,-0.0709 -1.32248,-0.36646 -1.95854,-0.63196 -0.63472,-0.2582 -1.2411,-0.5766 -1.81793,-0.94538 -0.49645,-0.27852 -0.94312,-0.6335 -1.42351,-0.93677 -0.53841,-0.42355 -1.09806,-0.81868 -1.64362,-1.23285 -0.72098,-0.56281 -1.43286,-1.13497 -2.11295,-1.74684 -0.75781,-0.65638 -1.53306,-1.29172 -2.28406,-1.956 -0.7693,-0.70738 -1.56154,-1.38699 -2.38475,-2.03042 -0.78089,-0.59417 -1.5857,-1.1547 -2.39484,-1.70939 -0.7803,-0.47964 -1.49365,-1.05311 -2.18372,-1.65247 -0.67352,-0.60069 -1.2594,-1.29101 -1.84142,-1.97837 -0.6581,-0.77467 -1.34534,-1.52468 -2.07358,-2.23382 -0.80195,-0.83469 -1.63605,-1.6353 -2.48173,-2.4252 -0.76151,-0.70434 -1.52171,-1.4107 -2.23118,-2.1678 -0.92247,-1.03635 -1.8523,-2.0635 -2.80702,-3.0703 -0.96259,-0.96885 -1.87245,-1.98505 -2.78903,-2.99643 -0.90982,-1.01584 -1.77724,-2.06844 -2.60594,-3.15123 -0.77621,-0.98392 -1.4547,-2.03931 -2.18107,-3.05969 -0.57911,-0.81899 -1.17188,-1.62853 -1.77628,-2.42905 -0.5232,-0.73822 -1.14871,-1.3948 -1.75516,-2.06355 -0.5945,-0.55366 -1.07416,-1.20937 -1.59207,-1.83044 -0.50421,-0.59529 -0.91674,-1.25913 -1.35683,-1.90121 -0.58817,-0.87988 -0.96318,-1.87583 -1.35021,-2.85461 -0.42268,-1.14519 -0.85214,-2.28827 -1.2649,-3.43707 -0.30458,-0.78725 -0.49907,-1.6096 -0.71399,-2.4241 -0.18326,-0.77411 -0.41091,-1.53661 -0.59617,-2.31015 -0.22141,-0.86999 -0.44084,-1.74056 -0.67,-2.60855 -0.17911,-0.69611 -0.32364,-1.40047 -0.49101,-2.09921 -0.14091,-0.5849 -0.29939,-1.16539 -0.43658,-1.75141 -0.14808,-0.54265 -0.2996,-1.08433 -0.44083,-1.62884 -0.0903,-0.35153 -0.14255,-0.70971 -0.16566,-1.07143 -0.0239,-0.17218 0.0151,-0.352825 -0.042,-0.51865 -0.0948,-0.217413 -0.20726,-0.428516 -0.30281,-0.647531 -0.1768,-0.272827 -0.28167,-0.582951 -0.44294,-0.863653 -0.18561,-0.288102 -0.30762,-0.609854 -0.49879,-0.893667 -0.23781,-0.315582 -0.50235,-0.60493 -0.78379,-0.881673 -0.33656,-0.3975 -0.67975,-0.788729 -1.03444,-1.170205 -0.36319,-0.362156 -0.64683,-0.793165 -1.01381,-1.151197 -0.37287,-0.341862 -0.7902,-0.630724 -1.20669,-0.916138 -0.41737,-0.299918 -0.84457,-0.58515 -1.24292,-0.910434 -0.31777,-0.206121 -0.63233,-0.423547 -0.96762,-0.601644 -0.31264,-0.158046 -0.61277,-0.33474 -0.92069,-0.502399 -0.28472,-0.184319 -0.59321,-0.318423 -0.89663,-0.468254 -0.24974,-0.175231 -0.51834,-0.282019 -0.81865,-0.321977 -0.40109,-0.03321 -0.80435,-0.02852 -1.20651,-0.03082 -0.66038,-0.0035 -1.32075,-0.0016 -1.98112,-5.29e-4 -0.76518,-0.0024 -1.53036,-0.0019 -2.29554,-0.0016 -0.74023,7.4e-5 -1.48046,-5.29e-4 -2.22069,0.0031 -0.51986,0.03272 -1.02723,-0.01193 -1.53862,-0.09776 -0.31311,-0.05411 -0.63001,-0.07306 -0.94711,-0.08089 -0.28812,-0.0032 -0.5763,-0.0045 -0.86444,-0.0024 -0.28824,-1.19e-4 -0.57647,0.0016 -0.8647,0.0011 -0.17981,0.0021 -0.35963,0.0024 -0.53943,0.0043 -0.12456,-1.6e-5 -0.24912,-7.94e-4 -0.37367,2.22e-4 0,0 2.28591,-1.660803 2.28591,-1.660803 v 0 c 0.12433,0.0011 0.24866,2.39e-4 0.373,2.33e-4 0.17597,0.0019 0.35195,0.0021 0.52792,0.0039 0.28819,-7.94e-4 0.57638,1.5e-5 0.86457,-0.0011 0.28997,0.0016 0.58018,-0.0026 0.86989,0.01244 0.3227,0.0172 0.6433,0.05537 0.96134,0.113432 0.49577,0.07994 0.9928,0.08147 1.49436,0.07343 0.73738,0.0036 1.47476,0.0031 2.21215,0.0031 0.76735,5.3e-5 1.53471,5.3e-4 2.30206,-0.0035 0.66385,-7.93e-4 1.32768,-0.0019 1.99151,-0.0057 0.41795,-2.22e-4 0.8408,-0.01257 1.25366,0.06292 0.30947,0.07822 0.58524,0.222721 0.8589,0.385445 0.3036,0.151784 0.609,0.2974 0.898,0.476629 0.31246,0.162147 0.60943,0.350284 0.92462,0.507185 0.33847,0.198942 0.67118,0.411138 0.98527,0.646538 0.39607,0.316698 0.81272,0.604422 1.22863,0.894202 0.42844,0.296764 0.85669,0.601181 1.23679,0.958773 0.35681,0.371218 0.65285,0.79398 1.01231,1.16287 0.35144,0.379444 0.69335,0.767276 1.03782,1.153025 0.29508,0.289661 0.56597,0.599866 0.81854,0.927317 0.19411,0.290507 0.32143,0.616374 0.50989,0.911093 0.16381,0.290401 0.27982,0.60521 0.45893,0.887698 0.0991,0.223129 0.22048,0.434996 0.32074,0.655587 0.0792,0.199838 0.0885,0.385048 0.0756,0.599676 0.0112,0.347072 0.0436,0.692748 0.12328,1.031679 0.13145,0.549 0.28549,1.09251 0.43393,1.63705 0.13754,0.58556 0.29641,1.16559 0.43573,1.75048 0.16682,0.69861 0.29633,1.40616 0.47016,2.10336 0.22834,0.87023 0.43998,1.74477 0.67262,2.61389 0.18583,0.77064 0.42201,1.52759 0.60328,2.29929 0.21381,0.80957 0.38305,1.63295 0.67903,2.41847 0.3931,1.15217 0.81698,2.29457 1.24499,3.43415 0.3888,0.95502 0.76722,1.92715 1.35346,2.78233 0.43925,0.63294 0.84317,1.29292 1.34636,1.87901 0.51151,0.62087 0.99128,1.26975 1.57825,1.82473 0.61023,0.67581 1.23589,1.3426 1.76134,2.0886 0.60487,0.80318 1.19552,1.6174 1.76799,2.44398 0.7158,1.02269 1.38705,2.07799 2.1576,3.06121 0.82546,1.07655 1.69292,2.11968 2.59878,3.12968 0.91244,1.01128 1.82203,2.02388 2.7761,2.99682 0.95503,1.00795 1.88685,2.03596 2.83033,3.05442 0.72213,0.7373 1.47173,1.44688 2.22087,2.15661 0.84557,0.79316 1.67843,1.59802 2.48977,2.42634 0.73604,0.71449 1.4302,1.47073 2.09755,2.24972 0.5766,0.67512 1.15868,1.35121 1.82583,1.93972 0.68032,0.59548 1.3934,1.14998 2.16124,1.62962 0.8095,0.56112 1.61614,1.12614 2.39595,1.72834 0.82658,0.64723 1.61779,1.3355 2.39183,2.04486 0.75515,0.66241 1.53857,1.29068 2.29523,1.95131 0.67922,0.60236 1.38264,1.17478 2.10726,1.72185 0.54967,0.40375 1.10798,0.79555 1.65368,1.20468 0.47101,0.3135 0.9284,0.64774 1.414,0.93904 0.56957,0.35587 1.16911,0.65746 1.79302,0.90702 0.61888,0.26382 1.24255,0.50486 1.91521,0.59282 0.96273,0.19334 1.93335,0.33128 2.90644,0.46185 0.98796,0.15183 1.98527,0.26853 2.95298,0.52649 0.64265,0.1748 1.27634,0.38319 1.89547,0.62907 0.54423,0.25675 1.05543,0.57028 1.55034,0.91229 0.44984,0.30273 0.88949,0.61957 1.32277,0.94556 0.3461,0.28825 0.65832,0.61422 1.01927,0.88458 0.41044,0.29144 0.80865,0.6 1.24815,0.84805 0.44394,0.31313 0.89004,0.62458 1.34634,0.91933 0.58388,0.35318 1.13735,0.75431 1.74301,1.07151 0.59185,0.3381 1.19578,0.65687 1.7656,1.03179 0.51059,0.34429 0.99897,0.71003 1.44963,1.13185 0.6185,0.54169 1.19654,1.12373 1.69704,1.77825 0.45274,0.61929 0.91911,1.23181 1.32295,1.88431 0.47092,0.78428 0.95455,1.56129 1.38703,2.36797 0.493,0.88544 0.97339,1.78389 1.60665,2.58022 0.4899,0.59708 1.01767,1.14934 1.71147,1.51221 0.69227,0.38492 1.39946,0.74757 2.15036,1.00589 0.84652,0.29625 1.6958,0.58358 2.53428,0.90239 0.87112,0.31523 1.71521,0.69727 2.57277,1.04708 1.09884,0.48827 2.17327,1.03465 3.21411,1.63684 1.12705,0.6805 2.26412,1.34806 3.34809,2.09631 1.02352,0.70792 2.05502,1.41633 2.96558,2.26907 0.50627,0.51309 1.02402,1.03964 1.22362,1.75298 0.086,0.38991 0.0629,0.74301 -0.0859,1.11651 -0.0788,0.43643 -0.26122,0.82489 -0.42392,1.23427 -0.22374,0.53007 -0.49722,1.0349 -0.77589,1.53774 -0.19094,0.29463 -0.37741,0.61973 -0.64872,0.84546 -0.2096,0.25802 -0.49433,0.44631 -0.70519,0.70742 -0.36085,0.28814 -0.68611,0.62236 -1.08036,0.86416 -0.0625,0.0343 -0.12501,0.0686 -0.18752,0.10291 -0.0495,0.043 -0.0925,0.0951 -0.14861,0.12905 -0.94161,0.56908 -1.93091,1.28293 -2.9986,1.6955 -0.30682,0.1273 -0.61076,0.22058 -0.94876,0.20953 -0.43212,0.0295 -0.86087,0.0847 -1.28669,0.16454 -0.4429,0.0456 -0.88977,0.0713 -1.32027,0.19562 -0.55337,0.13266 -1.11609,0.22322 -1.66811,0.36282 -0.7375,0.16173 -1.47246,0.33465 -2.21716,0.46195 -0.80424,0.17757 -1.60486,0.37282 -2.41617,0.51675 -0.88487,0.14908 -1.77068,0.29621 -2.66007,0.41498 -1.03816,0.12231 -2.08039,0.20507 -3.12503,0.24575 -1.24849,0.0584 -2.49716,0.053 -3.74682,0.05 -1.12273,-8e-4 -2.24585,0.002 -3.36798,-0.0408 -1.00791,-0.0473 -2.01146,-0.13793 -3.01239,-0.26662 -0.94994,-0.0901 -1.90295,-0.17127 -2.8445,-0.32837 -1.19028,-0.22099 -2.38092,-0.44212 -3.56556,-0.69169 -1.80193,-0.39494 -3.60977,-0.7728 -5.43007,-1.07239 -1.68867,-0.21348 -3.38282,-0.37579 -5.08225,-0.47537 -1.38597,-0.0888 -2.7728,-0.16087 -4.15573,-0.29301 -1.27144,-0.0599 -2.54322,-0.0538 -3.81587,-0.0462 -1.12799,0.002 -2.25605,0.009 -3.38398,-0.007 -1.01538,-0.0194 -2.03147,-0.0499 -3.04239,-0.15344 -1.0407,-0.0977 -2.08509,-0.16272 -3.1191,-0.32155 -1.17467,-0.16895 -2.3494,-0.34176 -3.51303,-0.5772 -1.17033,-0.25443 -2.31742,-0.60015 -3.47454,-0.9077 -0.92556,-0.29025 -1.82959,-0.6411 -2.74285,-0.96729 -0.80132,-0.29405 -1.59211,-0.61525 -2.39649,-0.90121 -0.7355,-0.29886 -1.46892,-0.60337 -2.20039,-0.91169 -0.67569,-0.3266 -1.37147,-0.61388 -2.02466,-0.98416 -0.61261,-0.35835 -1.22202,-0.72421 -1.80942,-1.1228 -0.60493,-0.45642 -1.2088,-0.91407 -1.81641,-1.36689 -0.74277,-0.5492 -1.51078,-1.06408 -2.22058,-1.65692 -0.7589,-0.59487 -1.52165,-1.1852 -2.32256,-1.72333 -0.69912,-0.47322 -1.41894,-0.91696 -2.13567,-1.36244 -0.72829,-0.41109 -1.44431,-0.85071 -2.21995,-1.16935 -0.83788,-0.32629 -1.66617,-0.67804 -2.51682,-0.97061 -0.90695,-0.31633 -1.80308,-0.66745 -2.73071,-0.9208 -0.77375,-0.22034 -1.55633,-0.36962 -2.36317,-0.39538 -0.71762,-0.0318 -1.43667,-0.0125 -2.15442,0.01 -0.9403,0.0461 -1.87772,0.14223 -2.79963,0.33976 -1.15276,0.24159 -2.28567,0.55074 -3.39911,0.93732 -0.17915,0.0633 -0.36,0.12194 -0.53744,0.18988 -0.17146,0.0657 -0.34205,0.13414 -0.5089,0.21079 -0.16079,0.0739 -0.62471,0.332 -0.47328,0.24045 3.65108,-2.20742 2.00396,-1.13798 1.17785,-0.67393 -0.65297,0.4495 -1.24705,0.9652 -1.77682,1.55688 -0.48026,0.57959 -0.96031,1.15845 -1.26699,1.85461 -0.34479,0.69915 -0.60519,1.43202 -0.67828,2.21384 -0.11107,0.80163 -0.14196,1.60818 -0.099,2.41681 0,0 -2.49527,1.2714 -2.49527,1.2714 z"
       id="path817"
       style="opacity:1;fill:#000000;fill-opacity:1;fill-rule:nonzero;stroke:none;stroke-width:2;stroke-miterlimit:4;stroke-dasharray:none;stroke-dashoffset:0;stroke-opacity:1" />
  </g>
</svg>
